PathFileType	4	(x/y/z)	TRC_MarkerData\Passive\Passive_Pref0002.trc
DataRate	CameraRate	NumFrames	NumMarkers	Units	OrigDataRate	OrigDataStartFrame	OrigNumFrames
240	240	4	50	mm	240	1	303
Frame#	Time	R_AC			L_AC			HEAD			STERN			C7			L_IC			R_IC			L_ASIS			R_ASIS			L_GT			R_GT			L_PSIS			R_PSIS			SACRAL			L_LAT_KNEE			L_MED_KNEE			R_LAT_KNEE			R_MED_KNEE			L_LAT_ANK			L_MED_ANK			R_LAT_ANK			R_MED_ANK			L_THIGH_PROX_POST			L_THIGH_PROX_ANT			L_THIGH_DIST_ANT			L_THIGH_DIST_POST			R_THIGH_PROX_POST			R_THIGH_PROX_ANT			R_THIGH_DIST_ANT			R_THIGH_DIST_POST			L_SHANK_PROX_POST			L_SHANK_PROX_ANT			L_SHANK_DIST_ANT			L_SHANK_DIST_POST			R_SHANK_PROX_POST			R_SHANK_PROX_ANT			R_SHANK_DIST_ANT			R_SHANK_DIST_POST			L_HEEL_LAT			L_HEEL_SUP			L_HEEL_MED			R_HEEL_LAT			R_HEEL_SUP			R_HEEL_MED			L_1ST_MET			L_5TH_MET			L_TOE			R_1ST_MET			R_5TH_MET			R_TOE			
		X1	Y1	Z1	X2	Y2	Z2	X3	Y3	Z3	X4	Y4	Z4	X5	Y5	Z5	X6	Y6	Z6	X7	Y7	Z7	X8	Y8	Z8	X9	Y9	Z9	X10	Y10	Z10	X11	Y11	Z11	X12	Y12	Z12	X13	Y13	Z13	X14	Y14	Z14	X15	Y15	Z15	X16	Y16	Z16	X17	Y17	Z17	X18	Y18	Z18	X19	Y19	Z19	X20	Y20	Z20	X21	Y21	Z21	X22	Y22	Z22	X23	Y23	Z23	X24	Y24	Z24	X25	Y25	Z25	X26	Y26	Z26	X27	Y27	Z27	X28	Y28	Z28	X29	Y29	Z29	X30	Y30	Z30	X31	Y31	Z31	X32	Y32	Z32	X33	Y33	Z33	X34	Y34	Z34	X35	Y35	Z35	X36	Y36	Z36	X37	Y37	Z37	X38	Y38	Z38	X39	Y39	Z39	X40	Y40	Z40	X41	Y41	Z41	X42	Y42	Z42	X43	Y43	Z43	X44	Y44	Z44	X45	Y45	Z45	X46	Y46	Z46	X47	Y47	Z47	X48	Y48	Z48	X49	Y49	Z49	X50	Y50	Z50	
 
1	0	-954.73	1490.6	484.77	-970.95	1516.4	91.537	-861.43	1805.4	304.19	-863.34	1463.6	286.66	-1006.7	1550.2	293.73	-975	1059.8	124.48	-981.83	1081	467.66	-902.73	1001.8	168.72	-917.58	998.77	439.51	-969.23	919.8	107.86	-1025	943.38	482.81	-1115.1	1018.9	238.15	-1111.3	1034.3	344.99	-1126.8	1005.4	293.1	-783.3	556.96	161.54	-771.77	573.25	298.4	-1168.8	553.76	434.42	-1145.4	546.22	308.39	-620.65	134.14	177.75	-624.67	135.47	257.74	-1383.6	140.39	363.28	-1347.2	156.96	267.85	-932.33	767.63	129.36	-869.26	789.54	130.57	-840.41	720.7	144.14	-901.15	700.76	142.07	-1100.4	791.96	469.54	-1037.2	769.81	477.68	-1066.2	702.17	464.43	-1129.7	724.77	452.86	-753.36	512.55	169.16	-723.22	545.57	182.04	-699.28	501.4	188.65	-732.07	463.11	174.37	-1307.3	440.37	412.04	-1243.7	421.05	436.24	-1264.8	351.23	422.19	-1328.6	367.81	399.76	-639.81	38.07	178.91	-666.23	54.614	213.96	-638.39	29.953	245.95	-1463.1	112.77	331.76	-1457.9	140.09	297.99	-1448.8	110.78	265.59	-448.22	149.34	277.5	-456.8	138.61	171.17	-407.68	184.45	254.56	-1232.3	44.22	281.3	-1274.7	37.346	388.84	-1189.9	41.287	334.21
2	0.0041805	-949.13	1490.1	484.22	-965.6	1515.7	90.986	-856.28	1804.9	303.59	-857.86	1463.1	286.13	-1001.3	1549.6	293.17	-969.49	1059.1	124.25	-976.03	1080.4	467.37	-896.79	1001.2	168.56	-912.03	998.17	439.41	-963.42	918.91	107.78	-1019.8	942.88	482.53	-1109.6	1018.3	237.72	-1105.8	1033.7	344.57	-1121.1	1004.8	292.65	-779.44	555.55	161.96	-768.28	571.57	298.85	-1163.9	553.44	434.2	-1140.2	545.56	308.24	-618.42	132.57	178.1	-622.59	133.84	258.21	-1382.2	141.86	363.36	-1345.6	158.27	267.98	-927.33	766.46	129.43	-864.28	788	130.59	-835.65	719.17	144.08	-896.71	699.46	142.41	-1095.4	791.62	469.01	-1032.2	769.42	477.4	-1061.3	701.77	464.17	-1124.7	724.4	452.35	-749.7	510.99	169.62	-719.48	543.87	182.62	-695.72	499.62	189.23	-728.63	461.46	174.8	-1303.1	441.18	411.79	-1239.8	421.28	436.08	-1261.5	351.62	421.95	-1325.1	368.8	399.54	-638.6	37.266	179.18	-664.6	54.164	214.23	-637.42	29.282	246.21	-1462	115.05	331.39	-1456.6	142.67	297.91	-1447.4	113.15	265.51	-446.22	146.36	278.36	-454.61	135.78	172.02	-405.35	181.19	255.55	-1232.2	44.145	281.24	-1274.6	37.395	388.86	-1189.8	41.222	334.17
3	0.0083609	-943.3	1489.7	483.65	-960.02	1515	90.407	-850.9	1804.4	302.95	-852.15	1462.5	285.56	-995.63	1549	292.57	-963.69	1058.3	124.02	-969.98	1079.8	467.07	-890.59	1000.5	168.4	-906.22	997.55	439.3	-957.37	918	107.69	-1014.3	942.37	482.23	-1103.8	1017.7	237.27	-1100.1	1033.1	344.12	-1115.1	1004.2	292.17	-775.43	554.14	162.39	-764.67	569.87	299.31	-1158.8	553.1	434	-1134.7	544.85	308.1	-616.13	130.99	178.44	-620.48	132.17	258.68	-1380.6	143.4	363.47	-1344	159.65	268.15	-922.11	765.28	129.49	-859.08	786.43	130.62	-830.7	717.6	144.03	-892.07	698.14	142.75	-1090.1	791.27	468.46	-1027	769.02	477.12	-1056.1	701.35	463.91	-1119.4	724.02	451.82	-745.9	509.42	170.1	-715.6	542.14	183.22	-692.03	497.82	189.84	-725.06	459.79	175.26	-1298.6	442.02	411.55	-1235.6	421.53	435.94	-1258	352.04	421.73	-1321.3	369.85	399.34	-637.38	36.459	179.43	-662.94	53.734	214.46	-636.45	28.621	246.44	-1460.8	117.47	331.05	-1455.1	145.36	297.85	-1446	115.66	265.46	-444.2	143.27	279.27	-452.38	132.85	172.91	-402.99	177.81	256.6	-1232	44.064	281.18	-1274.4	37.444	388.87	-1189.7	41.153	334.13
4	0.012541	-937.29	1489.2	483.06	-954.24	1514.3	89.802	-845.33	1804	302.3	-846.24	1462	284.98	-989.79	1548.4	291.95	-957.63	1057.5	123.76	-963.73	1079.2	466.76	-884.16	999.8	168.23	-900.19	996.93	439.19	-951.11	917.08	107.59	-1008.6	941.85	481.92	-1097.9	1017.2	236.79	-1094.1	1032.5	343.65	-1108.9	1003.6	291.68	-771.28	552.75	162.84	-760.98	568.16	299.77	-1153.4	552.75	433.81	-1129	544.12	307.99	-613.81	129.4	178.76	-618.37	130.49	259.15	-1379	145.01	363.62	-1342.2	161.07	268.35	-916.71	764.11	129.56	-853.69	784.85	130.64	-825.59	716	144	-887.27	696.82	143.09	-1084.6	790.91	467.89	-1021.5	768.61	476.82	-1050.6	700.93	463.64	-1113.8	723.62	451.29	-741.98	507.86	170.59	-711.59	540.42	183.84	-688.23	496.01	190.47	-721.38	458.12	175.72	-1294	442.89	411.33	-1231.2	421.78	435.83	-1254.4	352.48	421.54	-1317.4	370.93	399.15	-636.16	35.664	179.66	-661.27	53.338	214.66	-635.49	27.986	246.65	-1459.6	120.03	330.75	-1453.5	148.17	297.83	-1444.5	118.3	265.42	-442.18	140.11	280.21	-450.12	129.86	173.83	-400.61	174.34	257.69	-1231.8	43.977	281.12	-1274.2	37.494	388.9	-1189.5	41.081	334.09
